<svg xmlns="http://www.w3.org/2000/svg" width="36" height="36" viewBox="0 0 36 36" fill="none">
  <g clip-path="url(#clip0_2235_1104)">
    <path d="M31.5797 12.1962C30.3247 12.965 29.3044 14.0632 28.6298 15.3712C27.9551 16.6793 27.652 18.1473 27.7532 19.6156C27.8545 21.0839 28.3563 22.4963 29.2041 23.6994C30.0519 24.9025 31.2133 25.8501 32.562 26.4394C32.418 26.8457 32.2843 27.2674 32.1223 27.6788C31.2017 29.9487 29.9104 32.0499 28.3011 33.8965C27.6204 34.9002 26.5832 35.607 25.4002 35.8735C24.2171 36.14 22.977 35.9462 21.9317 35.3314C20.892 34.8184 19.7482 34.5516 18.5888 34.5516C17.4295 34.5516 16.2857 34.8184 15.246 35.3314C14.9111 35.4818 14.5676 35.6123 14.2174 35.7222C13.4933 36.0073 12.703 36.0803 11.9389 35.9328C11.1748 35.7853 10.4685 35.4233 9.90255 34.8891C8.22619 33.3437 6.84892 31.5027 5.83969 29.4582C3.88325 25.9044 3.00487 21.8574 3.31198 17.8122C3.41645 15.8717 4.09917 14.0067 5.27231 12.4574C6.44544 10.908 8.05532 9.74509 9.89483 9.11823C11.5446 8.59334 13.3255 8.6588 14.9323 9.30338C18.5323 10.7022 17.8174 10.5891 21.3325 9.30338C22.9065 8.63875 24.6432 8.46015 26.3195 8.79055C27.9957 9.12094 29.5348 9.94522 30.7388 11.1574C30.95 11.3712 31.1467 11.5989 31.3277 11.8388C31.4203 11.9468 31.4948 12.0857 31.5797 12.1962Z" fill="#5A696E"/>
    <path d="M25.0226 0C25.125 1.01033 25.0207 2.03093 24.716 2.99966C24.4113 3.96839 23.9127 4.86496 23.2504 5.63479C22.5881 6.40461 21.776 7.03157 20.8637 7.47749C19.9513 7.92341 18.9577 8.17896 17.9434 8.22857C16.956 4.90886 21.1269 0.0334286 25.0226 0Z" fill="#5A696E"/>
  </g>
  <defs>
    <clipPath id="clip0_2235_1104">
      <rect width="36" height="36" fill="white"/>
    </clipPath>
  </defs>
</svg>