<svg xmlns="http://www.w3.org/2000/svg" width="133" height="40" viewBox="0 0 133 40" fill="none">
  <circle cx="30.7797" cy="10.2192" r="2.10239" transform="rotate(-15 30.7797 10.2192)" fill="#12282F"/>
  <path d="M21.4281 10.3608H16.8952C16.5499 10.3608 16.2477 10.5335 16.1182 10.8789L10.981 24.8659L5.80061 10.8789C5.67111 10.5335 5.36892 10.3608 5.02356 10.3608H0.577073C0.102206 10.3608 -0.113643 10.6199 0.0590358 11.0947L8.21812 31.5572L5.15307 38.9824C4.93722 39.4573 5.19624 39.7163 5.67111 39.7163H9.98808C10.3334 39.7163 10.6356 39.5436 10.7651 39.1982L21.9461 11.0947C22.1188 10.6199 21.9029 10.3608 21.4281 10.3608Z" fill="#12282F"/>
  <path d="M132.545 30.7369L123.825 19.1242L131.293 11.1378C131.682 10.7493 131.509 10.3607 130.948 10.3607H125.983C125.681 10.3607 125.422 10.4471 125.206 10.7061L117.436 19.081V0.647546C117.436 0.259018 117.177 0 116.788 0H112.385C111.996 0 111.737 0.259018 111.737 0.647546V30.8664C111.737 31.2549 111.996 31.5139 112.385 31.5139H116.788C117.177 31.5139 117.436 31.2549 117.436 30.8664V25.945L120.371 22.8368L126.631 31.1254C126.847 31.4276 127.063 31.5139 127.408 31.5139H132.157C132.675 31.5139 132.847 31.1686 132.545 30.7369Z" fill="#12282F"/>
  <path d="M107.207 10.3612H103.235C102.847 10.3612 102.631 10.6202 102.588 11.0088L102.458 12.9946C100.861 11.1814 98.7025 9.88635 96.026 9.88635C90.1117 9.88635 85.7947 14.8077 85.7947 20.981C85.7947 27.1543 90.1117 32.0756 96.026 32.0756C98.7888 32.0756 100.904 30.8237 102.415 29.0537L102.588 30.8669C102.631 31.2554 102.847 31.5144 103.235 31.5144H107.207C107.595 31.5144 107.854 31.2554 107.854 30.8669V11.0088C107.854 10.6202 107.595 10.3612 107.207 10.3612ZM96.7167 26.8952C93.5653 26.8952 91.2773 24.3482 91.2773 20.9378C91.2773 17.5706 93.5653 15.0667 96.7167 15.0667C99.8249 15.0667 102.113 17.7433 102.113 20.9378C102.113 24.1324 99.8249 26.8952 96.7167 26.8952Z" fill="#12282F"/>
  <path d="M74.626 9.88635C71.1724 9.88635 68.6686 11.5268 67.1576 13.8148C65.8194 11.2678 63.445 9.88635 60.639 9.88635C57.5739 9.88635 55.3291 11.57 53.9477 13.8148V13.7716L53.775 11.0088C53.7318 10.6202 53.516 10.3612 53.1275 10.3612H48.8968C48.5083 10.3612 48.2493 10.6202 48.2493 11.0088V30.8669C48.2493 31.2554 48.5083 31.5144 48.8968 31.5144H53.3001C53.6887 31.5144 53.9477 31.2554 53.9477 30.8669V19.2974C53.9477 18.3045 55.4155 15.1531 58.61 15.1531C60.6822 15.1531 62.5816 16.3618 62.5816 19.8586V30.8669C62.5816 31.2554 62.8407 31.5144 63.2292 31.5144H67.6325C68.021 31.5144 68.28 31.2554 68.28 30.8669V19.211C68.28 17.7001 69.7478 15.1531 72.9424 15.1531C74.9714 15.1531 76.8708 16.3618 76.8708 19.8586V30.8669C76.8708 31.2554 77.1298 31.5144 77.5184 31.5144H81.9217C82.3102 31.5144 82.5692 31.2554 82.5692 30.8669V18.8225C82.5692 13.1673 79.2452 9.88635 74.626 9.88635Z" fill="#12282F"/>
  <path d="M30.7805 10.2194C25.3388 11.6775 21.9839 17.0365 22.9183 22.4816C22.9724 22.797 22.9995 22.9546 23.0987 23.0802C23.181 23.1843 23.3152 23.2703 23.4442 23.3014C23.5998 23.339 23.7682 23.2939 24.1051 23.2036L43.0538 18.1264C43.3906 18.0361 43.559 17.991 43.675 17.8806C43.7711 17.7892 43.8444 17.6476 43.8636 17.5163C43.8867 17.3579 43.8313 17.2078 43.7205 16.9077C41.8071 11.7248 36.2223 8.76132 30.7805 10.2194Z" fill="#12282F"/>
  <path d="M42.0738 25.569C42.3756 25.7433 42.5265 25.8305 42.61 25.9672C42.6791 26.0804 42.7132 26.2364 42.6977 26.3682C42.6789 26.5273 42.5866 26.6575 42.4021 26.9179C41.5033 28.1861 40.3392 29.2489 38.9863 30.03C37.3424 30.9791 35.4775 31.4788 33.5793 31.4788C31.681 31.4788 29.8162 30.9791 28.1723 30.03C26.8194 29.2489 25.6553 28.1861 24.7565 26.9179C24.5719 26.6575 24.4796 26.5273 24.4609 26.3682C24.4453 26.2364 24.4794 26.0804 24.5486 25.9672C24.632 25.8305 24.783 25.7433 25.0848 25.569L27.3938 24.2359C27.6962 24.0613 27.8474 23.9741 27.9813 23.9604C28.1134 23.947 28.2059 23.9638 28.3247 24.0229C28.4453 24.0828 28.5756 24.2415 28.8363 24.559C29.3028 25.1272 29.8694 25.6091 30.5108 25.9794C31.4438 26.5181 32.502 26.8016 33.5793 26.8016C34.6565 26.8016 35.7148 26.5181 36.6477 25.9794C37.2891 25.6091 37.8558 25.1272 38.3223 24.559C38.583 24.2415 38.7133 24.0828 38.8338 24.0229C38.9527 23.9638 39.0452 23.947 39.1772 23.9604C39.3112 23.9741 39.4623 24.0613 39.7647 24.2359L42.0738 25.569Z" fill="#12282F"/>
</svg>