<svg xmlns="http://www.w3.org/2000/svg" width="36" height="36" viewBox="0 0 36 36" fill="none">
  <g clip-path="url(#clip0_2235_1125)">
    <path fill-rule="evenodd" clip-rule="evenodd" d="M25.9397 0.285889H10.3344C2.97725 0.285889 0.285522 2.97762 0.285522 10.3348V25.9513C0.285522 33.3084 2.97725 36.0002 10.3344 36.0002H25.9397C33.2968 36.0002 35.9923 33.3084 35.9923 25.9513V10.3348C35.9998 2.97762 33.3081 0.285889 25.9397 0.285889Z" fill="#C8102E"/>
    <path d="M7.35697 18.1429H8.30434V22.8159H7.35697V20.9174H5.21788V22.8159H4.27051V18.1429H5.21788V20.0226H7.35697V18.1429ZM12.6953 20.8159C12.6953 21.5678 12.3194 21.9813 11.6352 21.9813C10.951 21.9813 10.5675 21.5678 10.5675 20.7745V18.1429H9.62013V20.8121C9.62013 22.1241 10.3495 22.876 11.6201 22.876C12.8908 22.876 13.6427 22.1241 13.6427 20.7708V18.1429H12.6953V20.8159ZM23.6427 21.3535L22.5825 18.1429H21.8043L20.7517 21.3572L19.7179 18.1429H18.7104L20.3382 22.8159H21.1239L22.1803 19.7482L23.2404 22.8159H24.0337L25.6615 18.1429H24.6765L23.6427 21.3535ZM27.357 20.8008H29.0825V19.955H27.357V19.0001H29.8607V18.1429H26.4246V22.8046H29.9509V21.9625H27.357V20.8008ZM31.0788 22.8046H32.0149V18.1429H31.0788V22.8046ZM15.5149 21.8384L15.0901 22.8084H14.1239L16.1652 18.1429H16.9998L19.0487 22.8084H18.0713L17.669 21.8422L15.5149 21.8384ZM15.8682 20.9963H17.2931L16.5788 19.3272L15.8682 20.9963Z" fill="white"/>
    <path d="M18.1427 12.1996C16.5667 12.1986 15.0555 11.5721 13.941 10.4576C12.8266 9.34322 12.2001 7.83202 12.1991 6.25598H13.0374C13.0374 7.60998 13.5753 8.90852 14.5327 9.86595C15.4902 10.8234 16.7887 11.3612 18.1427 11.3612C19.4967 11.3612 20.7952 10.8234 21.7527 9.86595C22.7101 8.90852 23.248 7.60998 23.248 6.25598H24.0863C24.0853 7.83202 23.4588 9.34322 22.3444 10.4576C21.2299 11.5721 19.7187 12.1986 18.1427 12.1996Z" fill="white"/>
  </g>
  <defs>
    <clipPath id="clip0_2235_1125">
      <rect width="36" height="36" fill="white"/>
    </clipPath>
  </defs>
</svg>