<svg xmlns="http://www.w3.org/2000/svg" width="25" height="24" viewBox="0 0 25 24" fill="none">
  <path d="M4.5 21C4.5 21.5523 4.94772 22 5.5 22C6.05228 22 6.5 21.5523 6.5 21H4.5ZM19.5 21L18.9453 21.8321C19.2522 22.0366 19.6467 22.0557 19.9719 21.8817C20.297 21.7077 20.5 21.3688 20.5 21H19.5ZM16.5 19L17.0547 18.1679C16.6581 17.9035 16.13 17.9558 15.7929 18.2929L16.5 19ZM14.5 21L13.7929 21.7071C14.1834 22.0976 14.8166 22.0976 15.2071 21.7071L14.5 21ZM12.5 19L13.2071 18.2929C12.8166 17.9024 12.1834 17.9024 11.7929 18.2929L12.5 19ZM10.5 21L9.79289 21.7071C10.1834 22.0976 10.8166 22.0976 11.2071 21.7071L10.5 21ZM8.5 19L9.20711 18.2929C8.87004 17.9558 8.34192 17.9035 7.9453 18.1679L8.5 19ZM4.9453 20.1679C4.48577 20.4743 4.3616 21.0952 4.66795 21.5547C4.9743 22.0142 5.59517 22.1384 6.0547 21.8321L4.9453 20.1679ZM9.5 6C8.94772 6 8.5 6.44772 8.5 7C8.5 7.55228 8.94772 8 9.5 8V6ZM15.5 8C16.0523 8 16.5 7.55228 16.5 7C16.5 6.44772 16.0523 6 15.5 6V8ZM9.5 10C8.94772 10 8.5 10.4477 8.5 11C8.5 11.5523 8.94772 12 9.5 12V10ZM15.5 12C16.0523 12 16.5 11.5523 16.5 11C16.5 10.4477 16.0523 10 15.5 10V12ZM13.5 14C12.9477 14 12.5 14.4477 12.5 15C12.5 15.5523 12.9477 16 13.5 16V14ZM15.5 16C16.0523 16 16.5 15.5523 16.5 15C16.5 14.4477 16.0523 14 15.5 14V16ZM6.5 21V5H4.5V21H6.5ZM6.5 5C6.5 4.44772 6.94772 4 7.5 4V2C5.84315 2 4.5 3.34315 4.5 5H6.5ZM7.5 4H17.5V2H7.5V4ZM17.5 4C18.0523 4 18.5 4.44772 18.5 5H20.5C20.5 3.34315 19.1569 2 17.5 2V4ZM18.5 5V21H20.5V5H18.5ZM20.0547 20.1679L17.0547 18.1679L15.9453 19.8321L18.9453 21.8321L20.0547 20.1679ZM15.7929 18.2929L13.7929 20.2929L15.2071 21.7071L17.2071 19.7071L15.7929 18.2929ZM15.2071 20.2929L13.2071 18.2929L11.7929 19.7071L13.7929 21.7071L15.2071 20.2929ZM11.7929 18.2929L9.79289 20.2929L11.2071 21.7071L13.2071 19.7071L11.7929 18.2929ZM11.2071 20.2929L9.20711 18.2929L7.79289 19.7071L9.79289 21.7071L11.2071 20.2929ZM7.9453 18.1679L4.9453 20.1679L6.0547 21.8321L9.0547 19.8321L7.9453 18.1679ZM9.5 8H15.5V6H9.5V8ZM9.5 12H15.5V10H9.5V12ZM13.5 16H15.5V14H13.5V16Z" fill="currentColor"/>
</svg>